<?xml version="1.0" standalone="no"?>
<!DOCTYPE svg PUBLIC "-//W3C//DTD SVG 20010904//EN"
 "http://www.w3.org/TR/2001/REC-SVG-20010904/DTD/svg10.dtd">
<svg version="1.0" xmlns="http://www.w3.org/2000/svg"
 width="260.000000pt" height="260.000000pt" viewBox="0 0 260.000000 260.000000"
 preserveAspectRatio="xMidYMid meet">
<metadata>
Created by potrace 1.11, written by Peter Selinger 2001-2013
</metadata>
<g transform="translate(0.000000,260.000000) scale(0.100000,-0.100000)"
fill="#000000" stroke="none">
<path d="M0 1300 l0 -1300 1300 0 1300 0 0 1300 0 1300 -1300 0 -1300 0 0
-1300z m2346 956 c-3 -13 -38 -54 -77 -93 -58 -57 -74 -79 -84 -118 -9 -37
-11 -239 -7 -862 l5 -813 -82 0 -81 0 0 805 c0 561 3 820 11 857 16 75 53 108
159 143 97 32 149 74 151 122 2 25 2 25 6 4 3 -12 2 -33 -1 -45z m-1102 -170
c89 -27 152 -95 200 -217 38 -94 466 -1463 466 -1488 0 -7 -27 -11 -73 -11
l-74 0 -43 117 c-103 283 -212 438 -339 481 -19 7 -60 12 -91 12 -156 0 -262
-97 -414 -380 -95 -176 -183 -240 -330 -240 -122 0 -211 48 -259 140 -26 50
-28 62 -24 130 5 100 33 157 189 400 231 360 294 480 374 710 86 249 134 317
244 351 41 12 124 10 174 -5z"/>
<path d="M1023 2010 c-60 -27 -91 -82 -154 -266 -67 -200 -139 -346 -305 -625
-146 -245 -174 -309 -174 -394 0 -125 97 -215 230 -215 111 0 170 45 289 219
118 172 179 222 308 256 109 28 239 13 322 -37 32 -20 33 -20 28 -2 -4 10 -41
132 -83 269 -42 138 -96 318 -121 400 -71 242 -135 359 -218 396 -51 23 -70
23 -122 -1z"/>
</g>
</svg>
